Coordinates
version=1
nRows=23
nColumns=27
inDegrees=yes

Units are S.I. units (second, meters, Newtons, ...)
If the header above contains a line with 'inDegrees', this indicates whether rotational values are in degrees (yes) or radians (no).

endheader
time	pelvis_rotation	pelvis_tilt	pelvis_list	pelvis_tx	pelvis_ty	pelvis_tz	hip_flexion_r	hip_adduction_r	hip_rotation_r	knee_angle_r	knee_rotation_r	knee_adduction_r	knee_angle_r_beta	ankle_angle_r	subtalar_angle_r	mtp_angle_r	hip_flexion_l	hip_adduction_l	hip_rotation_l	knee_angle_l	knee_rotation_l	knee_adduction_l	knee_angle_l_beta	ankle_angle_l	subtalar_angle_l	mtp_angle_l
      4.64000000	      3.40932023	    -37.31716684	      2.46523253	      0.03095772	      0.42620145	     -1.15607332	    139.08340420	    -46.36564085	     26.77637030	    111.17223673	      0.00000000	      0.00000000	      1.94032157	     16.05591388	      0.00000000	      0.00000000	    135.86283823	    -38.27647145	     22.45243297	    104.71927283	      0.00000000	      0.00000000	      1.82769610	      6.12081689	      0.00000000	      0.00000000
      4.64500000	      3.46508870	    -37.37400419	      2.62738382	      0.03056685	      0.42654044	     -1.15609819	    139.23393642	    -46.21785685	     26.92624892	    111.14341631	      0.00000000	      0.00000000	      1.93981856	     15.95181120	      0.00000000	      0.00000000	    135.77226788	    -38.35489765	     22.21148245	    104.65459088	      0.00000000	      0.00000000	      1.82656719	      6.11232521	      0.00000000	      0.00000000
      4.65000000	      3.54678702	    -37.40274578	      2.63131862	      0.03016821	      0.42689306	     -1.15618271	    139.22360144	    -46.24494465	     26.91734608	    111.08675581	      0.00000000	      0.00000000	      1.93882964	     15.85395616	      0.00000000	      0.00000000	    135.77180599	    -38.25775177	     22.13319483	    104.60453724	      0.00000000	      0.00000000	      1.82569359	      6.00357366	      0.00000000	      0.00000000
      4.65500000	      3.55432265	    -37.48417070	      2.70658519	      0.02972360	      0.42732482	     -1.15620087	    139.27774196	    -46.10757323	     26.93292905	    111.03959667	      0.00000000	      0.00000000	      1.93800656	     15.83246290	      0.00000000	      0.00000000	    135.78272236	    -38.32532714	     21.99144747	    104.54204025	      0.00000000	      0.00000000	      1.82460281	      5.92708807	      0.00000000	      0.00000000
      4.66000000	      3.45774023	    -37.29420700	      2.61776059	      0.02909281	      0.42799326	     -1.15626400	    138.82442132	    -45.98567727	     26.70286270	    110.91676138	      0.00000000	      0.00000000	      1.93586268	     15.79191393	      0.00000000	      0.00000000	    135.54417072	    -38.32871327	     21.97092918	    104.44184236	      0.00000000	      0.00000000	      1.82285403	      5.89983810	      0.00000000	      0.00000000
      4.66500000	      3.75035953	    -37.59532108	      2.74354058	      0.02877909	      0.42834532	     -1.15634677	    139.28656407	    -46.16831159	     26.89367300	    110.89903492	      0.00000000	      0.00000000	      1.93555330	     15.71992627	      0.00000000	      0.00000000	    135.77712134	    -38.12604554	     21.76317666	    104.39888236	      0.00000000	      0.00000000	      1.82210423	      5.70503831	      0.00000000	      0.00000000
      4.67000000	      3.49639885	    -37.46244241	      2.76171703	      0.02802195	      0.42914046	     -1.15634072	    138.88871226	    -45.73426040	     26.69789445	    110.76506068	      0.00000000	      0.00000000	      1.93321501	     15.68050573	      0.00000000	      0.00000000	    135.53289611	    -38.41615644	     21.65433727	    104.27041248	      0.00000000	      0.00000000	      1.81986201	      5.65935214	      0.00000000	      0.00000000
      4.67500000	      3.91967408	    -37.74627567	      2.82138211	      0.02772405	      0.42962278	     -1.15648165	    139.30720663	    -46.14945794	     26.84250424	    110.73005996	      0.00000000	      0.00000000	      1.93260413	     15.63582417	      0.00000000	      0.00000000	    135.76284807	    -38.00416410	     21.46929217	    104.21992230	      0.00000000	      0.00000000	      1.81898079	      5.43823269	      0.00000000	      0.00000000
      4.68000000	      3.66496193	    -37.62176275	      2.83747658	      0.02690619	      0.43053686	     -1.15647699	    138.90060065	    -45.70899889	     26.63340239	    110.58141967	      0.00000000	      0.00000000	      1.93000986	     15.53778361	      0.00000000	      0.00000000	    135.50794354	    -38.28738680	     21.34750532	    104.07746262	      0.00000000	      0.00000000	      1.81649440	      5.39772950	      0.00000000	      0.00000000
      4.68500000	      4.07612201	    -37.90229160	      2.89916709	      0.02652654	      0.43111666	     -1.15664603	    139.30650248	    -46.10178829	     26.76442208	    110.52574055	      0.00000000	      0.00000000	      1.92903808	     15.39656171	      0.00000000	      0.00000000	    135.70911225	    -37.87712752	     21.15396500	    104.00989135	      0.00000000	      0.00000000	      1.81531506	      5.22129889	      0.00000000	      0.00000000
      4.69000000	      3.84468766	    -37.77561015	      2.93180996	      0.02568317	      0.43214291	     -1.15666571	    138.89124302	    -45.67829491	     26.55966129	    110.36149258	      0.00000000	      0.00000000	      1.92617141	     15.37889689	      0.00000000	      0.00000000	    135.42819611	    -38.15069232	     20.99498326	    103.85651136	      0.00000000	      0.00000000	      1.81263807	      5.14182843	      0.00000000	      0.00000000
      4.69500000	      4.25285066	    -38.06588177	      2.80448271	      0.02526029	      0.43284670	     -1.15689514	    139.11587567	    -46.24355409	     26.46251830	    110.26601304	      0.00000000	      0.00000000	      1.92450498	     15.25988639	      0.00000000	      0.00000000	    135.75777809	    -37.56990250	     20.98415309	    103.79929845	      0.00000000	      0.00000000	      1.81163952	      4.93882221	      0.00000000	      0.00000000
      4.70000000	      4.40123834	    -38.16617551	      2.90187992	      0.02454461	      0.43381940	     -1.15699835	    139.17143625	    -46.24164629	     26.47389474	    110.13505783	      0.00000000	      0.00000000	      1.92221938	     15.11113328	      0.00000000	      0.00000000	    135.67317332	    -37.46631772	     20.72953132	    103.65668872	      0.00000000	      0.00000000	      1.80915051	      4.84013379	      0.00000000	      0.00000000
      4.70500000	      4.47540707	    -38.23803981	      2.94427056	      0.02385245	      0.43481765	     -1.15710632	    139.11335754	    -46.21012395	     26.39969868	    110.00190505	      0.00000000	      0.00000000	      1.91989543	     15.03826836	      0.00000000	      0.00000000	    135.60284371	    -37.40414303	     20.54213605	    103.51856576	      0.00000000	      0.00000000	      1.80673981	      4.66519580	      0.00000000	      0.00000000
      4.71000000	      4.57386064	    -38.34896812	      3.01714715	      0.02307806	      0.43589765	     -1.15722884	    139.11200326	    -46.16887876	     26.34548075	    109.85099308	      0.00000000	      0.00000000	      1.91726152	     14.93906974	      0.00000000	      0.00000000	    135.53406499	    -37.32643442	     20.31396582	    103.37129489	      0.00000000	      0.00000000	      1.80416945	      4.53047143	      0.00000000	      0.00000000
      4.71500000	      4.63097737	    -38.46459083	      3.14190755	      0.02227208	      0.43703287	     -1.15731360	    139.13224112	    -46.02269559	     26.32668263	    109.70219273	      0.00000000	      0.00000000	      1.91466446	     14.83780818	      0.00000000	      0.00000000	    135.43270377	    -37.34618999	     20.03458429	    103.20715472	      0.00000000	      0.00000000	      1.80130466	      4.39926859	      0.00000000	      0.00000000
      4.72000000	      4.78752488	    -38.56488134	      3.20554037	      0.02147589	      0.43819832	     -1.15744852	    139.12302031	    -46.06396904	     26.27656805	    109.54109245	      0.00000000	      0.00000000	      1.91185273	     14.72008496	      0.00000000	      0.00000000	    135.33405506	    -37.18476351	     19.80085527	    103.04332067	      0.00000000	      0.00000000	      1.79844522	      4.27439213	      0.00000000	      0.00000000
      4.72500000	      4.92613318	    -38.64868379	      3.22233706	      0.02065021	      0.43941779	     -1.15761437	    139.04360184	    -46.13139299	     26.15811273	    109.37017282	      0.00000000	      0.00000000	      1.90886962	     14.63932496	      0.00000000	      0.00000000	    135.25237880	    -37.00208782	     19.60984283	    102.88068223	      0.00000000	      0.00000000	      1.79560664	      4.12172174	      0.00000000	      0.00000000
      4.73000000	      4.80367518	    -38.85390735	      3.35664493	      0.01967015	      0.44077157	     -1.15764440	    139.05782513	    -45.73112767	     26.05734575	    109.18479243	      0.00000000	      0.00000000	      1.90563412	     14.48307912	      0.00000000	      0.00000000	    135.23228304	    -37.24318970	     19.32735559	    102.68654068	      0.00000000	      0.00000000	      1.79221823	      3.93677248	      0.00000000	      0.00000000
      4.73500000	      5.00202342	    -38.95232905	      3.38437727	      0.01879203	      0.44213053	     -1.15784002	    139.00361145	    -45.86096517	     25.95385793	    108.99443764	      0.00000000	      0.00000000	      1.90231180	     14.36850307	      0.00000000	      0.00000000	    135.11894677	    -36.98771040	     19.10095080	    102.50051973	      0.00000000	      0.00000000	      1.78897155	      3.82792560	      0.00000000	      0.00000000
      4.74000000	      5.10343937	    -39.09011159	      3.44847150	      0.01783996	      0.44354942	     -1.15798039	    138.97182517	    -45.82608066	     25.84645523	    108.79644141	      0.00000000	      0.00000000	      1.89885612	     14.22443480	      0.00000000	      0.00000000	    135.03050783	    -36.88168806	     18.85200549	    102.30044059	      0.00000000	      0.00000000	      1.78547951	      3.68258959	      0.00000000	      0.00000000
      4.74500000	      5.19943913	    -39.22569426	      3.50199292	      0.01686273	      0.44502067	     -1.15811549	    138.92014975	    -45.79351651	     25.72061733	    108.59222464	      0.00000000	      0.00000000	      1.89529186	     14.09083633	      0.00000000	      0.00000000	    134.94100352	    -36.77340581	     18.60659825	    102.09337348	      0.00000000	      0.00000000	      1.78186551	      3.52540982	      0.00000000	      0.00000000
      4.75000000	      5.22971403	    -39.32517934	      3.27384774	      0.01587532	      0.44654645	     -1.15832736	    138.57961500	    -45.96212970	     25.25586723	    108.34917516	      0.00000000	      0.00000000	      1.89104985	     13.97933859	      0.00000000	      0.00000000	    135.00812944	    -36.49929888	     18.64832622	    101.91078431	      0.00000000	      0.00000000	      1.77867873	      3.35632655	      0.00000000	      0.00000000
